<svg width="1200" height="900" viewBox="0 0 1200 900" fill="none" xmlns="http://www.w3.org/2000/svg">
  <defs>
    <linearGradient id="bg" x1="140" y1="90" x2="1060" y2="810" gradientUnits="userSpaceOnUse">
      <stop stop-color="#11131E"/>
      <stop offset="1" stop-color="#0A0B12"/>
    </linearGradient>
    <linearGradient id="cable" x1="190" y1="475" x2="1030" y2="475" gradientUnits="userSpaceOnUse">
      <stop stop-color="#2C2F3F"/>
      <stop offset="0.5" stop-color="#3B3F55"/>
      <stop offset="1" stop-color="#262A3A"/>
    </linearGradient>
    <linearGradient id="metal" x1="0" y1="0" x2="1" y2="1">
      <stop stop-color="#E7E8ED"/>
      <stop offset="1" stop-color="#9EA3B5"/>
    </linearGradient>
    <linearGradient id="usbBlue" x1="0" y1="0" x2="1" y2="1">
      <stop stop-color="#6C63FF"/>
      <stop offset="1" stop-color="#00D9A3"/>
    </linearGradient>
    <filter id="softShadow" x="-50%" y="-50%" width="200%" height="200%">
      <feDropShadow dx="0" dy="18" stdDeviation="18" flood-color="#000000" flood-opacity="0.45"/>
    </filter>
  </defs>

  <rect width="1200" height="900" fill="url(#bg)"/>

  <circle cx="265" cy="205" r="170" fill="#6C63FF" fill-opacity="0.12"/>
  <circle cx="980" cy="705" r="200" fill="#00D9A3" fill-opacity="0.1"/>

  <g filter="url(#softShadow)">
    <rect x="130" y="200" width="940" height="500" rx="42" fill="#121522" stroke="#23283A" stroke-width="2"/>
  </g>

  <path d="M220 468C318 400 416 560 514 492C612 424 710 536 808 468C890 412 954 446 1020 486" stroke="url(#cable)" stroke-width="48" stroke-linecap="round"/>
  <path d="M220 468C318 400 416 560 514 492C612 424 710 536 808 468C890 412 954 446 1020 486" stroke="#FFFFFF" stroke-opacity="0.09" stroke-width="10" stroke-linecap="round"/>

  <g transform="translate(980 450)">
    <rect x="0" y="0" width="130" height="72" rx="20" fill="#1C2030" stroke="#353C53" stroke-width="2"/>
    <rect x="100" y="14" width="90" height="44" rx="10" fill="url(#metal)"/>
    <rect x="122" y="24" width="42" height="24" rx="4" fill="url(#usbBlue)"/>
    <rect x="127" y="29" width="14" height="14" rx="2" fill="#0E1322" fill-opacity="0.65"/>
    <rect x="145" y="29" width="14" height="14" rx="2" fill="#0E1322" fill-opacity="0.65"/>
  </g>

  <g transform="translate(152 430)">
    <rect x="0" y="0" width="120" height="84" rx="24" fill="#1A1E2D" stroke="#343C53" stroke-width="2"/>
    <rect x="-26" y="20" width="42" height="44" rx="10" fill="url(#metal)"/>
    <rect x="-20" y="26" width="26" height="32" rx="8" fill="#CFD4E2"/>
    <rect x="-13" y="30" width="12" height="24" rx="5" fill="#A8AEC0"/>
  </g>

  <g opacity="0.8">
    <text x="188" y="272" fill="#ECEFFA" font-family="Inter, Arial, sans-serif" font-size="52" font-weight="700">C‚ble USB-C Tressť</text>
    <text x="188" y="324" fill="#9EA8C4" font-family="Inter, Arial, sans-serif" font-size="24">USB-C vers USB-A ∑ 1.8m ∑ gaine nylon renforcťe</text>
  </g>

  <g>
    <rect x="188" y="590" width="220" height="56" rx="28" fill="#6C63FF" fill-opacity="0.18" stroke="#6C63FF" stroke-opacity="0.5"/>
    <text x="298" y="626" text-anchor="middle" fill="#DCD9FF" font-family="Inter, Arial, sans-serif" font-size="22" font-weight="600">AxionPad</text>
    <rect x="426" y="590" width="220" height="56" rx="28" fill="#00D9A3" fill-opacity="0.16" stroke="#00D9A3" stroke-opacity="0.5"/>
    <text x="536" y="626" text-anchor="middle" fill="#C9FFF1" font-family="Inter, Arial, sans-serif" font-size="22" font-weight="600">Accessoire</text>
  </g>
</svg>
